<?xml version="1.0" encoding="utf-8"?>
<!-- Generator: Adobe Illustrator 15.0.0, SVG Export Plug-In  -->
<!DOCTYPE svg PUBLIC "-//W3C//DTD SVG 1.1//EN" "http://www.w3.org/Graphics/SVG/1.1/DTD/svg11.dtd" [
	<!ENTITY ns_flows "http://ns.adobe.com/Flows/1.0/">
]>
<svg version="1.1"
	 xmlns="http://www.w3.org/2000/svg" xmlns:xlink="http://www.w3.org/1999/xlink" xmlns:a="http://ns.adobe.com/AdobeSVGViewerExtensions/3.0/"
	 x="0px" y="0px" width="937px" height="463px" viewBox="-9.595 -10.636 937 463"
	 overflow="visible" enable-background="new -9.595 -10.636 937 463" xml:space="preserve">
<defs>
</defs>
<path d="M72.362,182.327c-19.341,0-35.075,15.734-35.075,35.074c0,19.341,15.734,35.076,35.075,35.076
	c19.339,0,35.074-15.735,35.074-35.076C107.437,198.061,91.701,182.327,72.362,182.327z M72.362,231.477
	c-7.761,0-14.075-6.314-14.075-14.076c0-7.761,6.314-14.074,14.075-14.074s14.074,6.313,14.074,14.074
	C86.437,225.163,80.123,231.477,72.362,231.477z"/>
<path d="M21,75.91c1-0.153,1.295-0.313,1.692-0.465c52.739-20.086,103.909-19.309,137.992-14.899
	c38.81,5.018,65.021,15.692,65.604,15.933c5.347,2.238,11.561-0.278,13.804-5.624c2.242-5.349-0.244-11.502-5.592-13.744
	c-1.146-0.479-28.509-11.821-70.17-17.298c-34.976-4.595-86.971-5.636-141.148,13.11L21,54.462v-1.313V41.058
	c53-21.605,104.135-21.973,138.763-18.306c39.38,4.168,66.424,14.312,66.69,14.414c5.412,2.084,11.604-0.615,13.689-6.023
	c2.086-5.41-0.546-11.488-5.957-13.574c-1.17-0.451-29.105-11.102-71.048-15.626C124.39-2.239,65.395-1.705,6.695,24.567
	C2.917,26.258,0,30.011,0,34.151v70.692c0,0.035,0,0.069,0,0.104v12.235c0,2.518,1.404,4.951,3.049,6.858
	c1.615,1.872,40.659,45.867,114.212,45.867c5.799,0,10.624-4.701,10.624-10.5s-4.638-10.5-10.438-10.5
	c-26.62,0-51.645-6.459-73.453-19.197C32.732,123.134,25,116.477,21,112.932v-0.898c54-20.473,104.96-19.045,139.263-14.038
	c39.026,5.699,65.435,17.134,65.7,17.251c1.384,0.614,2.955,0.905,4.377,0.905c4.021,0,7.922-2.323,9.662-6.235
	c2.356-5.298,0.004-11.504-5.294-13.861c-1.146-0.51-29.021-12.554-70.706-18.733C128.625,72.078,76,70.383,21,89.661V76.149V75.91z
	"/>
<path d="M10.5,182.649c-5.799,0-10.5,4.701-10.5,10.5v242c0,5.799,4.701,10.5,10.5,10.5s10.5-4.701,10.5-10.5v-242
	C21,187.35,16.299,182.649,10.5,182.649z"/>
<path d="M303.5,10.649c-5.799,0-10.5,4.701-10.5,10.5v414c0,5.799,4.701,10.5,10.5,10.5s10.5-4.701,10.5-10.5v-414
	C314,15.35,309.299,10.649,303.5,10.649z"/>
<path d="M524.388,149.659c-81.576,0-147.942,66.367-147.942,147.943s66.366,147.943,147.942,147.943S672.33,379.178,672.33,297.602
	S605.964,149.659,524.388,149.659z M524.388,424.545c-69.996,0-126.942-56.946-126.942-126.943s56.946-126.943,126.942-126.943
	S651.33,227.605,651.33,297.602S594.384,424.545,524.388,424.545z"/>
<path d="M914.144,183.579c-9.867-62.348-29.351-101.127-30.177-102.747c-2.629-5.168-8.953-7.227-14.119-4.595
	c-5.168,2.63-7.225,8.952-4.594,14.121c0.186,0.366,18.798,37.403,28.151,96.504c8.656,54.699,10.812,144.599-28.411,238.293
	c-0.086,0.208-58.5-0.006-58.5-0.006c14.789-39,24.186-80.191,27.973-121.724c3.406-37.358,2.304-75.709-3.277-113.492
	c-9.522-64.463-28.616-105.469-29.424-107.178c-2.48-5.241-8.739-7.545-13.982-5.065c-5.241,2.479-7.482,8.709-5.002,13.95
	c0.184,0.391,18.562,40.222,27.633,101.627c8.193,55.461,10.06,139.882-26.46,231.882h-57.612c14.781-39,24.145-79.98,27.87-121.201
	c3.353-37.09,2.171-75.06-3.513-112.363c-9.697-63.658-28.982-103.865-29.797-105.541c-2.54-5.212-8.824-7.439-14.039-4.902
	c-5.213,2.54-7.381,8.794-4.84,14.008c0.187,0.381,18.695,38.836,27.916,99.364c8.527,55.977,10.457,142.369-28.775,236.089
	c-1.356,3.241-1.003,7.442,0.944,10.368c1.946,2.925,5.228,5.179,8.741,5.179H871c6.168,0,13.426-17.977,13.426-17.977
	c18.079-43.273,29.332-88.506,33.451-134.204C921.179,257.319,919.923,220.096,914.144,183.579z"/>
</svg>
