<?xml version="1.0" encoding="utf-8"?>
<!-- Generator: Adobe Illustrator 15.0.0, SVG Export Plug-In  -->
<!DOCTYPE svg PUBLIC "-//W3C//DTD SVG 1.1//EN" "http://www.w3.org/Graphics/SVG/1.1/DTD/svg11.dtd" [
	<!ENTITY ns_flows "http://ns.adobe.com/Flows/1.0/">
]>
<svg version="1.1"
	 xmlns="http://www.w3.org/2000/svg" xmlns:xlink="http://www.w3.org/1999/xlink" xmlns:a="http://ns.adobe.com/AdobeSVGViewerExtensions/3.0/"
	 x="0px" y="0px" width="242px" height="60px" viewBox="-8.314 -6.98 242 60"
	 overflow="visible" enable-background="new -8.314 -6.98 242 60" xml:space="preserve">
<defs>
</defs>
<path fill="#000000" d="M58.877,42.423c0.792-1.512,1.944-2.808,5.041-4.608c1.728-0.936,3.384-1.584,3.96-1.8
	c-7.417,0.864-15.409,1.296-22.682,1.008c-0.72,0.864-15.481,13.825-18.505,7.345c-1.008-2.088,1.296-3.096,3.6-4.032
	c3.816-1.512,11.953-3.672,12.097-3.745c-4.393-0.432-11.377-2.016-12.817-2.664c-0.504,1.08-11.665,6.697-16.562,6.697
	c-3.745,0.072-5.833-3.097-1.872-5.257c3.672-2.016,10.945-2.52,14.761-2.736c-1.8-0.864-3.384-1.368-4.033-1.8
	c-7.632-0.432-18.361,0.504-21.746-6.841c-1.152-3.672,6.121-6.192,16.201,0.936c1.584,1.08,6.049,4.537,6.049,4.537
	c0.792,0.288,3.312,1.44,4.536,2.016c-2.88-4.393-6.048-12.025-3.6-16.489c0.648-1.224,1.512-2.088,2.808-1.8
	c0.36,0.072,0.72,0.216,0.936,0.36c5.617,3.96,3.744,13.033,3.96,19.37c8.569,2.665,18.146,3.024,27.218,2.521
	C47.572,32.342,41.02,29.102,41.02,24.062c-0.072-3.889,5.617-3.384,10.009-0.216c1.08,0.72,2.088,1.656,2.952,2.592
	c1.8,1.944,4.896,5.761,5.833,8.857c11.881-0.864,29.307-3.457,56.741-11.449c-3.024-0.72-9.289-0.936-12.529-3.168
	c-1.296-0.864-3.96-2.736-2.304-4.393c0.864-0.936,3.24-1.296,4.608-1.152c4.104,0.288,8.425,3.456,12.169,8.137
	c4.537-1.152,13.753-4.033,19.802-5.977c-3.456-3.312-14.761-2.88-15.481-9.433c0-0.216,0.072-0.504,0.504-0.648
	c1.08-0.36,2.736-0.576,4.896-0.072c4.32,1.008,9,4.104,12.313,9.504c6.553-2.16,10.369-3.168,18.866-5.184
	c-4.681-3.24-9.505-4.393-11.017-8.857c-0.36-1.08-0.576-1.872,0.288-2.448c0.576-0.36,1.728,0,2.376,0.144
	c3.168,0.504,7.777,3.672,10.513,10.585c0.432-0.216,11.809-2.88,22.25-3.24c17.209-0.576,28.154,3.888,34.635,7.633
	c3.096,1.8,7.201,2.736,6.409,4.248c-0.504,0.648-1.8,0.504-2.736,0.216c-1.512-0.432-3.888-2.376-4.537-2.88
	c-3.24-2.16-10.873-5.256-13.321-5.833c-10.801-2.448-21.746-2.808-31.971-0.792c-2.232,4.896-8.641,13.393-11.449,14.329
	c-1.008,0.36-1.512,0.288-2.088-0.144c-0.648-0.576-0.936-1.44-0.864-2.304c0.216-3.6,8.281-8.569,11.377-11.305
	c-3.457,0.504-13.177,2.736-17.065,3.96c-1.584,2.016-5.833,9.145-8.497,11.593c-1.873,1.944-4.752,3.888-6.409,2.952
	c-1.8-1.008-0.288-3.24,1.008-4.824c1.8-2.376,6.337-6.049,10.297-8.713c-5.688,1.512-18.938,5.76-19.082,5.833
	c-0.072,0,0,0.072-0.072,0.144c-1.8,4.248-5.617,11.017-9.577,13.393c-1.656,1.08-2.808,1.152-4.104,0.864
	c-0.288-0.072-0.504-0.36-0.576-0.72c-0.288-5.473,7.92-8.641,11.953-13.033c-15.337,4.537-19.37,5.544-21.026,5.977
	c-0.792,1.728-5.977,9.217-8.065,11.305c-2.232,2.232-5.328,3.384-6.913,3.6c-0.936,0.144-2.232-0.072-2.592-1.008
	c-0.072-0.288-0.072-0.504-0.072-0.72c-0.072-3.672,11.521-9.217,15.049-12.601c-10.153,2.664-17.93,4.464-28.298,6.192
	c-0.288,0.288-0.576,0.72-1.08,1.224c-2.376,2.448-10.945,10.513-14.186,10.513C57.869,46.743,57.941,44.079,58.877,42.423z
	 M3.576,21.901c-2.232,0.288-2.52,1.224-1.8,2.304c3.528,5.184,11.953,4.968,18.146,5.112C19.274,28.742,9.121,21.181,3.576,21.901z
	 M27.194,33.926c-8.425,0.792-13.609,0.36-16.345,3.384c-0.576,0.648,0,1.368,0.36,1.584C14.089,40.623,24.17,35.583,27.194,33.926z
	 M27.41,15.781c-0.936-1.08-1.44-1.152-1.584-1.224H25.61c-0.144,0-0.144,0-0.216,0.072c-0.36,0.072-0.72,0.864-0.864,1.224
	c-0.432,0.864-0.504,1.224-0.576,1.872c0,0.144,0,0.144-0.072,0.288c-0.144,1.224,0,1.008,0.072,2.448
	c0.648,3.96,2.664,8.425,5.041,11.521l0.576,0.288C29.571,25.142,30.579,19.957,27.41,15.781z M42.1,38.103
	c-4.249,1.296-15.337,4.032-14.185,5.833C29.139,45.879,35.979,42.927,42.1,38.103z M54.485,29.102
	c-2.88-3.601-6.697-6.841-10.873-6.409c-0.576,0.144-1.368,0.288-1.152,1.44c1.152,5.4,8.209,6.913,14.762,9.145
	C56.789,32.414,55.637,30.542,54.485,29.102z M46.204,44.151c0-1.152,1.008-1.584,1.44-1.584c1.08-0.072,1.584,0.72,1.584,1.512
	c0,1.512-1.728,2.016-2.592,1.152C46.348,44.943,46.204,44.583,46.204,44.151z M72.63,35.727c-1.944,0.648-4.825,1.8-5.4,2.016
	c-4.104,1.728-8.713,5.112-7.489,7.561C62.693,45.303,70.542,37.743,72.63,35.727z M79.471,41.919
	c-0.216-0.216-0.36-0.648-0.36-1.008c0-0.864,0.504-1.584,1.512-1.584c1.08,0,1.512,0.72,1.512,1.584
	c0,0.648-0.432,1.512-1.512,1.512C80.191,42.423,79.831,42.279,79.471,41.919z M85.303,25.501c0-0.792,0.504-1.584,1.584-1.584
	c0.936,0,1.512,0.792,1.512,1.584c0,0.576-0.432,1.584-1.44,1.584C86.023,27.085,85.303,26.366,85.303,25.501z M97.256,38.103
	c2.232-2.232,3.816-4.464,5.041-6.48c-4.032,2.952-9.505,5.329-11.881,8.497c-0.432,0.576-0.504,1.296-0.288,1.44
	C91.064,42.279,94.376,40.983,97.256,38.103z M112.45,19.093c-1.8-1.224-4.249-2.232-6.265-2.52c-2.016-0.36-3.528,0-3.528,0.864
	c0.288,1.08,2.376,2.376,3.96,2.952c0.936,0.36,5.833,1.728,9.145,1.728C114.826,21.037,113.674,20.029,112.45,19.093z
	 M109.137,34.142c-0.216-0.288-0.432-0.72-0.432-1.152c-0.072-0.72,0.504-1.512,1.512-1.512c1.008,0,1.584,0.792,1.656,1.512
	c0,0.648-0.432,1.656-1.584,1.656C109.786,34.646,109.425,34.502,109.137,34.142z M119.938,33.422V33.35h0.072
	c0.144,0,3.312-2.808,6.193-8.208c-1.152,0.864-3.816,2.808-5.329,4.032c-4.537,3.6-4.104,5.329-4.176,5.544
	C117.778,34.935,119.002,33.998,119.938,33.422z M120.73,18.013c-0.288-0.36-0.432-0.792-0.432-1.152
	c0-0.792,0.504-1.584,1.944-1.584c0.648,0,1.152,1.152,1.152,1.584c0,0.36-0.144,0.792-0.432,1.152
	c-0.216,0.288-0.648,0.432-1.152,0.432C121.378,18.445,120.946,18.301,120.73,18.013z M137.868,15.133
	c-3.312-3.889-7.417-6.841-12.385-6.985c-0.288,0-0.864-0.072-1.008,0.216c-0.072,0.216,0.144,0.792,0.576,1.224
	c2.664,3.024,8.641,3.384,12.817,5.616V15.133z M141.684,26.293c2.953-2.304,4.752-5.472,6.625-8.497
	c-2.305,2.016-6.265,4.176-8.785,7.272c-0.792,1.08-2.232,2.521-1.44,2.953C139.092,28.454,141.18,26.726,141.684,26.293z
	 M152.197,2.1c-0.432-0.144-2.304-0.648-2.665-0.648c0.72,2.088,1.152,2.664,2.88,4.176c2.232,1.584,4.537,2.52,7.201,4.176
	C157.238,5.268,154.429,2.963,152.197,2.1z M169.263,12.612c-7.561,5.977-9.433,7.777-10.009,9.073
	c-0.36,0.792-0.504,1.584,0.648,1.584C162.494,23.27,168.11,14.484,169.263,12.612z M167.318,4.764c0-0.864,0.576-1.656,1.512-1.656
	c1.08,0,1.584,0.792,1.584,1.656c0,0.576-0.432,1.512-1.584,1.512C167.966,6.276,167.318,5.484,167.318,4.764z"/>
</svg>
