<?xml version="1.0" encoding="utf-8"?>
<!-- Generator: Adobe Illustrator 15.0.0, SVG Export Plug-In  -->
<!DOCTYPE svg PUBLIC "-//W3C//DTD SVG 1.1//EN" "http://www.w3.org/Graphics/SVG/1.1/DTD/svg11.dtd" [
	<!ENTITY ns_flows "http://ns.adobe.com/Flows/1.0/">
]>
<svg version="1.1"
	 xmlns="http://www.w3.org/2000/svg" xmlns:xlink="http://www.w3.org/1999/xlink" xmlns:a="http://ns.adobe.com/AdobeSVGViewerExtensions/3.0/"
	 x="0px" y="0px" width="241px" height="60px" viewBox="-9.986 -5.88 241 60"
	 overflow="visible" enable-background="new -9.986 -5.88 241 60" xml:space="preserve">
<defs>
</defs>
<path fill="#000000" d="M150.808,36.23c-0.504-0.504-0.792-0.936-1.08-1.224c-10.368-1.728-18.146-3.528-28.298-6.192
	c3.528,3.384,15.121,8.929,15.049,12.601c0,0.216,0,0.432-0.071,0.72c-0.36,0.937-1.656,1.152-2.593,1.008
	c-1.584-0.216-4.681-1.368-6.912-3.6c-2.089-2.088-7.272-9.577-8.065-11.305c-1.655-0.432-5.688-1.44-21.025-5.977
	c4.032,4.393,12.241,7.561,11.953,13.033c-0.072,0.36-0.288,0.648-0.576,0.72c-1.296,0.288-2.448,0.216-4.104-0.864
	c-3.96-2.376-7.776-9.145-9.577-13.393c-0.071-0.072,0-0.144-0.071-0.144c-0.145-0.072-13.394-4.32-19.082-5.833
	c3.961,2.664,8.497,6.336,10.297,8.713c1.296,1.584,2.809,3.816,1.008,4.824c-1.655,0.936-4.536-1.008-6.408-2.952
	c-2.664-2.448-6.913-9.577-8.497-11.593c-3.888-1.224-13.609-3.456-17.065-3.96c3.096,2.736,11.161,7.705,11.377,11.305
	c0.072,0.864-0.216,1.728-0.864,2.304c-0.576,0.432-1.08,0.504-2.088,0.144c-2.809-0.936-9.217-9.433-11.449-14.329
	C42.439,8.22,31.494,8.58,20.693,11.028c-2.448,0.576-10.081,3.672-13.321,5.833c-0.648,0.504-3.024,2.448-4.536,2.88
	C1.9,20.029,0.604,20.173,0.1,19.525c-0.792-1.512,3.312-2.448,6.409-4.248c6.48-3.745,17.425-8.209,34.635-7.633
	c10.441,0.36,21.818,3.024,22.25,3.24c2.736-6.913,7.345-10.081,10.513-10.585c0.648-0.144,1.801-0.504,2.376-0.144
	c0.864,0.576,0.648,1.368,0.288,2.448c-1.512,4.464-6.336,5.617-11.017,8.857c8.497,2.016,12.313,3.024,18.865,5.184
	c3.312-5.4,7.993-8.497,12.313-9.504c2.16-0.504,3.816-0.288,4.896,0.072c0.432,0.144,0.504,0.432,0.504,0.648
	c-0.72,6.553-12.025,6.121-15.481,9.433c6.049,1.944,15.266,4.824,19.802,5.977c3.744-4.681,8.064-7.849,12.169-8.137
	c1.368-0.144,3.744,0.216,4.608,1.152c1.656,1.656-1.008,3.528-2.304,4.393c-3.24,2.232-9.505,2.448-12.529,3.168
	c27.435,7.993,44.859,10.585,56.741,11.449c0.936-3.096,4.032-6.913,5.832-8.857c0.864-0.936,1.872-1.872,2.952-2.592
	c4.393-3.168,10.081-3.672,10.009,0.216c0,5.041-6.553,8.281-17.209,11.377c9.072,0.504,18.649,0.144,27.218-2.521
	c0.217-6.336-1.655-15.409,3.961-19.37c0.216-0.144,0.576-0.288,0.936-0.36c1.297-0.288,2.16,0.576,2.809,1.8
	c2.448,4.464-0.72,12.097-3.601,16.489c1.225-0.576,3.744-1.728,4.537-2.016c0,0,4.464-3.457,6.048-4.537
	c10.081-7.128,17.354-4.608,16.201-0.936c-3.384,7.345-14.112,6.409-21.745,6.841c-0.648,0.432-2.232,0.936-4.032,1.8
	c3.815,0.216,11.089,0.72,14.761,2.736c3.96,2.16,1.872,5.329-1.872,5.257c-4.896,0-16.058-5.617-16.562-6.697
	c-1.44,0.648-8.425,2.232-12.817,2.664c0.145,0.072,8.281,2.232,12.098,3.745c2.304,0.936,4.608,1.944,3.6,4.032
	c-3.023,6.48-17.785-6.48-18.505-7.345c-7.272,0.288-15.266-0.144-22.683-1.008c0.576,0.216,2.232,0.864,3.961,1.8
	c3.096,1.8,4.248,3.096,5.04,4.608c0.937,1.656,1.008,4.32-1.08,4.32C161.753,46.743,153.185,38.679,150.808,36.23z M54.536,4.764
	c0-0.864,0.504-1.656,1.584-1.656c0.936,0,1.512,0.792,1.512,1.656c0,0.72-0.648,1.512-1.512,1.512
	C54.968,6.276,54.536,5.34,54.536,4.764z M65.697,21.685c-0.576-1.296-2.448-3.096-10.009-9.073
	c1.152,1.872,6.769,10.657,9.361,10.657C66.201,23.27,66.057,22.477,65.697,21.685z M72.538,5.628
	c1.729-1.512,2.16-2.088,2.881-4.176c-0.36,0-2.232,0.504-2.665,0.648c-2.232,0.864-5.041,3.168-7.417,7.705
	C68.001,8.148,70.306,7.212,72.538,5.628z M85.427,25.069c-2.521-3.096-6.48-5.256-8.785-7.272c1.872,3.024,3.673,6.192,6.625,8.497
	c0.504,0.432,2.592,2.16,3.6,1.729C87.659,27.59,86.219,26.149,85.427,25.069z M99.9,9.588c0.433-0.432,0.648-1.008,0.576-1.224
	c-0.144-0.288-0.72-0.216-1.008-0.216c-4.969,0.144-9.073,3.096-12.385,6.985v0.072C91.259,12.973,97.236,12.612,99.9,9.588z
	 M104.077,29.174c-1.513-1.224-4.177-3.168-5.328-4.032c2.88,5.4,6.048,8.208,6.192,8.208h0.071v0.072
	c0.937,0.576,2.16,1.512,3.24,1.296C108.181,34.502,108.613,32.774,104.077,29.174z M101.989,18.013
	c-0.288-0.36-0.433-0.792-0.433-1.152c0-0.432,0.504-1.584,1.152-1.584c1.44,0,1.944,0.792,1.944,1.584
	c0,0.36-0.145,0.792-0.433,1.152c-0.216,0.288-0.647,0.432-1.08,0.432C102.636,18.445,102.205,18.301,101.989,18.013z
	 M118.333,20.389c1.584-0.576,3.673-1.872,3.961-2.952c0-0.864-1.513-1.224-3.528-0.864c-2.017,0.288-4.465,1.296-6.265,2.52
	c-1.225,0.937-2.376,1.944-3.312,3.024C112.501,22.117,117.398,20.749,118.333,20.389z M113.078,32.99
	c0.071-0.72,0.647-1.512,1.656-1.512c1.008,0,1.584,0.792,1.512,1.512c0,0.432-0.216,0.864-0.432,1.152
	c-0.288,0.36-0.648,0.504-1.152,0.504C113.509,34.646,113.078,33.638,113.078,32.99z M134.536,40.119
	c-2.377-3.168-7.85-5.544-11.882-8.497c1.225,2.016,2.809,4.249,5.041,6.48c2.88,2.88,6.192,4.176,7.128,3.457
	C135.04,41.415,134.967,40.695,134.536,40.119z M136.551,25.501c0-0.792,0.576-1.584,1.513-1.584c1.08,0,1.584,0.792,1.584,1.584
	c0,0.864-0.721,1.584-1.656,1.584C136.984,27.085,136.551,26.078,136.551,25.501z M142.816,40.911c0-0.864,0.432-1.584,1.512-1.584
	c1.009,0,1.513,0.72,1.513,1.584c0,0.36-0.145,0.792-0.36,1.008c-0.36,0.36-0.72,0.504-1.152,0.504
	C143.248,42.423,142.816,41.559,142.816,40.911z M157.721,37.743c-0.576-0.216-3.456-1.368-5.4-2.016
	c2.088,2.016,9.937,9.577,12.889,9.577C166.434,42.855,161.826,39.471,157.721,37.743z M182.492,24.133
	c0.216-1.152-0.576-1.296-1.152-1.44c-4.177-0.432-7.993,2.808-10.873,6.409c-1.152,1.44-2.305,3.312-2.736,4.176
	C174.283,31.046,181.339,29.534,182.492,24.133z M175.723,44.079c0-0.792,0.504-1.584,1.584-1.512c0.432,0,1.439,0.432,1.439,1.584
	c0,0.432-0.144,0.792-0.432,1.08C177.451,46.095,175.723,45.591,175.723,44.079z M182.851,38.103
	c6.121,4.825,12.961,7.777,14.186,5.833C198.189,42.135,187.1,39.399,182.851,38.103z M195.957,31.982
	c2.376-3.096,4.393-7.561,5.04-11.521c0.072-1.44,0.217-1.224,0.072-2.448c-0.072-0.144-0.072-0.144-0.072-0.288
	c-0.071-0.648-0.144-1.008-0.576-1.872c-0.144-0.36-0.504-1.152-0.863-1.224c-0.072-0.072-0.072-0.072-0.217-0.072h-0.216
	c-0.144,0.072-0.647,0.144-1.584,1.224c-3.168,4.176-2.16,9.361-2.16,16.489L195.957,31.982z M214.102,37.311
	c-2.736-3.024-7.921-2.592-16.346-3.384c3.024,1.656,13.105,6.697,15.985,4.968C214.102,38.679,214.678,37.958,214.102,37.311z
	 M223.175,24.206c0.72-1.08,0.432-2.016-1.801-2.304c-5.544-0.72-15.697,6.84-16.346,7.417
	C211.222,29.174,219.647,29.39,223.175,24.206z"/>
</svg>
